#!OML:ASF H:\Terrain\Patient Classification 1\Walking\steve\steve.ASF
:FULLY-SPECIFIED
:DEGREES
184
root 8.10528 16.3012 12.0734 4.7421 -11.7548 2.62203
lowerback 1.46909 4.07522 -2.98174
upperback -3.01426 5.26013 -2.26562
thorax -3.98621 2.67079 -0.935884
lowerneck -11.5226 -1.41063 -2.79004
upperneck 13.7628 -2.57273 7.325
head 6.20294 -0.816673 2.56801
rclavicle -4.77681e-014 1.03368e-014
rhumerus -36.0976 -0.686689 -88.0127
rradius 59.8302
rwrist -5.94888
rhand 177.366 -71.1271
rfingers 7.12502
rthumb -156.935 -42.4876
lclavicle -4.77681e-014 1.03368e-014
lhumerus -56.3601 28.4861 54.4094
lradius 8.5702
lwrist -30.4907
lhand -17.1026 -9.33688
lfingers 7.12502
lthumb 9.13636 20.4452
rfemur -14.7113 5.53557 16.2149
rtibia 73.8684
rfoot 9.29227 -3.65795
rtoes -11.8264
lfemur -28.3519 3.98953 -27.0793
ltibia 36.3413
lfoot -13.6355 0.899915
ltoes 1.25702
185
root 8.11742 16.3465 12.2859 4.60364 -11.2923 2.57337
lowerback 1.80721 3.86912 -2.8049
upperback -3.0129 4.98107 -2.14446
thorax -4.16824 2.52883 -0.919836
lowerneck -11.3851 -1.34415 -2.65156
upperneck 13.9455 -2.44677 6.87196
head 6.22241 -0.783669 2.41257
rclavicle -6.11164e-014 -2.10712e-014
rhumerus -36.8254 -1.1489 -88.0476
rradius 58.0097
rwrist -6.13095
rhand 176.505 -69.5928
rfingers 7.12502
rthumb -157.762 -40.8522
lclavicle -6.11164e-014 -2.10712e-014
lhumerus -54.6441 29.6805 54.8539
lradius 8.07425
lwrist -31.7918
lhand -17.6455 -10.2487
lfingers 7.12502
lthumb 8.6124 19.5556
rfemur -16.5179 4.90245 16.4499
rtibia 74.8869
rfoot 7.51752 -2.89666
rtoes -12.6793
lfemur -27.0327 3.69135 -27.1444
ltibia 35.7029
lfoot -14.1187 0.650917
ltoes 2.12683
186
root 8.12514 16.3876 12.5061 4.45043 -10.845 2.75505
lowerback 1.81523 3.66892 -2.82228
upperback -2.87607 4.71731 -2.12664
thorax -4.0309 2.39723 -0.870315
lowerneck -11.4456 -1.31282 -2.53286
upperneck 14.2467 -2.38399 6.51487
head 6.31917 -0.769436 2.28623
rclavicle 3.46309e-014 3.97569e-015
rhumerus -37.3406 -1.77662 -88.1495
rradius 56.1482
rwrist -6.48101
rhand 175.502 -69.2664
rfingers 7.12502
rthumb -158.725 -40.4142
lclavicle 3.46309e-014 3.97569e-015
lhumerus -53.2944 30.7564 55.2534
lradius 8.85894
lwrist -33.1198
lhand -18.6907 -12.0218
lfingers 7.12502
lthumb 7.60371 17.8215
rfemur -18.1363 4.5244 16.3712
rtibia 75.5977
rfoot 6.00327 -2.20761
rtoes -10.7702
lfemur -25.5691 3.35807 -27.4866
ltibia 35.0284
lfoot -14.7581 0.385812
ltoes 4.80138
187
root 8.1328 16.4323 12.7357 4.52935 -10.4496 2.85861
lowerback 1.44949 3.5307 -2.81676
upperback -2.77484 4.55315 -2.0879
thorax -3.71991 2.31473 -0.793358
lowerneck -11.4623 -1.28321 -2.64889
upperneck 14.5215 -2.35136 6.60096
head 6.40979 -0.748546 2.33836
rclavicle 8.82612e-014 -3.18055e-015
rhumerus -38.0099 -2.57868 -87.9253
rradius 54.1412
rwrist -6.3187
rhand 175.369 -69.1288
rfingers 7.12502
rthumb -158.852 -40.2622
lclavicle 8.82612e-014 -3.18055e-015
lhumerus -51.1789 31.8523 55.9569
lradius 8.47879
lwrist -34.683
lhand -19.888 -13.3375
lfingers 7.12502
lthumb 6.44796 16.5443
rfemur -19.8319 4.24932 16.3198
rtibia 75.9757
rfoot 4.71386 -1.47371
rtoes -9.33338
lfemur -24.216 2.90419 -27.7637
ltibia 34.2063
lfoot -15.2546 0.262456
ltoes 5.88288
188
root 8.13041 16.4453 12.9376 4.73804 -10.0651 2.68289
lowerback 1.38138 3.41047 -2.77826
upperback -2.84721 4.40079 -1.90446
thorax -3.76621 2.24141 -0.617586
lowerneck -11.2108 -1.2007 -2.87308
upperneck 14.6277 -2.25838 6.91358
head 6.40065 -0.693756 2.48584
rclavicle -9.22951e-015 -1.90833e-014
rhumerus -39.0208 -3.64325 -87.3326
rradius 52.019
rwrist -5.39996
rhand 176.26 -68.9774
rfingers 7.12502
rthumb -157.996 -40.2091
lclavicle -9.22951e-015 -1.90833e-014
lhumerus -49.5964 32.7245 56.5423
lradius 8.98296
lwrist -36.4697
lhand -19.3082 -13.4064
lfingers 7.12502
lthumb 7.00765 16.4576
rfemur -21.7152 4.16686 16.7265
rtibia 76.2308
rfoot 3.18499 -1.74973
rtoes -0.576517
lfemur -23.4091 2.29466 -27.64
ltibia 33.8071
lfoot -15.7252 0.256446
ltoes 5.56239
189
root 8.12425 16.4936 13.1463 4.83301 -9.74488 2.28016
lowerback 1.55081 3.28507 -2.60045
upperback -2.89233 4.24096 -1.62809
thorax -3.91407 2.16196 -0.437376
lowerneck -11.2174 -1.17655 -2.79006
upperneck 14.9691 -2.22026 6.67971
head 6.50473 -0.684431 2.40333
rclavicle -2.84876e-014 6.55989e-015
rhumerus -39.8372 -4.91864 -86.6506
rradius 49.623
rwrist -4.07459
rhand 176.786 -69.0886
rfingers 7.12502
rthumb -157.492 -40.3805
lclavicle -2.84876e-014 6.55989e-015
lhumerus -48.1204 33.7185 57.116
lradius 9.70212
lwrist -38.0379
lhand -19.3558 -14.3722
lfingers 7.12502
lthumb 6.96173 15.4933
rfemur -24.7567 3.60283 17.8012
rtibia 76.2941
rfoot 3.33209 -0.904852
rtoes -24.2382
lfemur -22.4976 1.78868 -27.1944
ltibia 33.4518
lfoot -16.1208 0.155263
ltoes 6.25162
